{
    "asset" : {
        "generator" : "Khronos glTF Blender I/O v1.5.17",
        "version" : "2.0"
    },
    "scene" : 0,
    "scenes" : [
        {
            "name" : "Scene",
            "nodes" : [
                0
            ]
        }
    ],
    "nodes" : [
        {
            "mesh" : 0,
            "name" : "r4c1_collider",
            "translation" : [
                -1,
                -1,
                -1
            ]
        }
    ],
    "meshes" : [
        {
            "name" : "Sphere.002",
            "primitives" : [
                {
                    "attributes" : {
                        "POSITION" : 0,
                        "NORMAL" : 1,
                        "TEXCOORD_0" : 2
                    },
                    "indices" : 3
                }
            ]
        }
    ],
    "accessors" : [
        {
            "bufferView" : 0,
            "componentType" : 5126,
            "count" : 327,
            "max" : [
                2.000000476837158,
                2,
                2.0000007152557373
            ],
            "min" : [
                -0.0006420614081434906,
                -0.003416418796405196,
                -0.002287032548338175
            ],
            "type" : "VEC3"
        },
        {
            "bufferView" : 1,
            "componentType" : 5126,
            "count" : 327,
            "type" : "VEC3"
        },
        {
            "bufferView" : 2,
            "componentType" : 5126,
            "count" : 327,
            "type" : "VEC2"
        },
        {
            "bufferView" : 3,
            "componentType" : 5123,
            "count" : 738,
            "type" : "SCALAR"
        }
    ],
    "bufferViews" : [
        {
            "buffer" : 0,
            "byteLength" : 3924,
            "byteOffset" : 0
        },
        {
            "buffer" : 0,
            "byteLength" : 3924,
            "byteOffset" : 3924
        },
        {
            "buffer" : 0,
            "byteLength" : 2616,
            "byteOffset" : 7848
        },
        {
            "buffer" : 0,
            "byteLength" : 1476,
            "byteOffset" : 10464
        }
    ],
    "buffers" : [
        {
            "byteLength" : 11940,
            "uri" : "r4c1_collider.bin"
        }
    ]
}
