{
    "asset" : {
        "generator" : "Khronos glTF Blender I/O v1.5.17",
        "version" : "2.0"
    },
    "extensionsUsed" : [
        "KHR_materials_transmission"
    ],
    "scene" : 0,
    "scenes" : [
        {
            "name" : "Scene",
            "nodes" : [
                0,
                1,
                2,
                3,
                4,
                5,
                6,
                7,
                8,
                9
            ]
        }
    ],
    "nodes" : [
        {
            "mesh" : 0,
            "name" : "2x1_bg.002",
            "rotation" : [
                0,
                0,
                -0.7071068286895752,
                0.7071068286895752
            ],
            "scale" : [
                0.09919559210538864,
                0.09919559210538864,
                0.09919559210538864
            ],
            "translation" : [
                0,
                -0.040818989276885986,
                0
            ]
        },
        {
            "mesh" : 1,
            "name" : "2x1_Collider02.002",
            "rotation" : [
                0,
                0,
                -0.7071068286895752,
                0.7071068286895752
            ],
            "scale" : [
                0.09919559210538864,
                0.09919559210538864,
                0.09919559210538864
            ],
            "translation" : [
                0,
                -0.040818989276885986,
                0
            ]
        },
        {
            "mesh" : 2,
            "name" : "11LandTile.004",
            "rotation" : [
                0,
                0,
                -0.7071068286895752,
                0.7071068286895752
            ],
            "scale" : [
                0.026639733463525772,
                0.026639733463525772,
                0.026639733463525772
            ],
            "translation" : [
                0,
                -0.040818989276885986,
                0
            ]
        },
        {
            "mesh" : 3,
            "name" : "13LandTile.005",
            "rotation" : [
                0,
                0,
                -0.7071068286895752,
                0.7071068286895752
            ],
            "scale" : [
                0.026639733463525772,
                0.026639733463525772,
                0.026639733463525772
            ],
            "translation" : [
                0,
                -0.040818989276885986,
                0
            ]
        },
        {
            "mesh" : 4,
            "name" : "13LandTile.006",
            "rotation" : [
                0,
                0,
                -0.7071068286895752,
                0.7071068286895752
            ],
            "scale" : [
                0.026639733463525772,
                0.026639733463525772,
                0.026639733463525772
            ],
            "translation" : [
                0,
                -0.040818989276885986,
                0
            ]
        },
        {
            "mesh" : 5,
            "name" : "21LandTile.003",
            "rotation" : [
                0,
                0,
                -0.7071068286895752,
                0.7071068286895752
            ],
            "scale" : [
                0.026639733463525772,
                0.026639733463525772,
                0.026639733463525772
            ],
            "translation" : [
                0,
                -0.04081904888153076,
                0
            ]
        },
        {
            "mesh" : 6,
            "name" : "31LandTile.004",
            "rotation" : [
                0,
                0,
                -0.7071068286895752,
                0.7071068286895752
            ],
            "scale" : [
                0.026639733463525772,
                0.026639733463525772,
                0.026639733463525772
            ],
            "translation" : [
                0,
                -0.040818989276885986,
                0
            ]
        },
        {
            "mesh" : 7,
            "name" : "32LandTile.004",
            "rotation" : [
                0,
                0,
                -0.7071068286895752,
                0.7071068286895752
            ],
            "scale" : [
                0.055269382894039154,
                0.026639733463525772,
                0.026639733463525772
            ],
            "translation" : [
                0,
                -0.04081904888153076,
                0
            ]
        },
        {
            "mesh" : 8,
            "name" : "33LandTile.005",
            "rotation" : [
                0,
                0,
                -0.7071068286895752,
                0.7071068286895752
            ],
            "scale" : [
                0.026639733463525772,
                0.026639733463525772,
                0.026639733463525772
            ],
            "translation" : [
                0,
                -0.040818989276885986,
                0
            ]
        },
        {
            "mesh" : 9,
            "name" : "33LandTile.006",
            "rotation" : [
                0,
                0,
                -0.7071068286895752,
                0.7071068286895752
            ],
            "scale" : [
                0.026639733463525772,
                0.026639733463525772,
                0.026639733463525772
            ],
            "translation" : [
                0,
                -0.040819019079208374,
                0
            ]
        }
    ],
    "materials" : [
        {
            "alphaMode" : "BLEND",
            "doubleSided" : true,
            "name" : "MenuBgTransparent",
            "pbrMetallicRoughness" : {
                "baseColorFactor" : [
                    0.03458452224731445,
                    0.03280330449342728,
                    0.030229933559894562,
                    0.36818182468414307
                ],
                "metallicFactor" : 0,
                "roughnessFactor" : 0.5
            }
        },
        {
            "doubleSided" : true,
            "extensions" : {
                "KHR_materials_transmission" : {
                    "transmissionFactor" : 1
                }
            },
            "name" : "metalic",
            "pbrMetallicRoughness" : {
                "baseColorTexture" : {
                    "index" : 0
                },
                "metallicFactor" : 0.1772727370262146,
                "roughnessFactor" : 0.06818181276321411
            }
        }
    ],
    "meshes" : [
        {
            "name" : "Plane.158",
            "primitives" : [
                {
                    "attributes" : {
                        "POSITION" : 0,
                        "NORMAL" : 1,
                        "TEXCOORD_0" : 2
                    },
                    "indices" : 3,
                    "material" : 0
                }
            ]
        },
        {
            "name" : "Plane.159",
            "primitives" : [
                {
                    "attributes" : {
                        "POSITION" : 4,
                        "NORMAL" : 5,
                        "TEXCOORD_0" : 6
                    },
                    "indices" : 3,
                    "material" : 0
                }
            ]
        },
        {
            "name" : "Plane.160",
            "primitives" : [
                {
                    "attributes" : {
                        "POSITION" : 7,
                        "NORMAL" : 8,
                        "TEXCOORD_0" : 9
                    },
                    "indices" : 3
                }
            ]
        },
        {
            "name" : "Plane.161",
            "primitives" : [
                {
                    "attributes" : {
                        "POSITION" : 10,
                        "NORMAL" : 11,
                        "TEXCOORD_0" : 12
                    },
                    "indices" : 3
                }
            ]
        },
        {
            "name" : "Plane.167",
            "primitives" : [
                {
                    "attributes" : {
                        "POSITION" : 13,
                        "NORMAL" : 14,
                        "TEXCOORD_0" : 15
                    },
                    "indices" : 3
                }
            ]
        },
        {
            "name" : "Plane.162",
            "primitives" : [
                {
                    "attributes" : {
                        "POSITION" : 16,
                        "NORMAL" : 17,
                        "TEXCOORD_0" : 18
                    },
                    "indices" : 3
                }
            ]
        },
        {
            "name" : "Plane.164",
            "primitives" : [
                {
                    "attributes" : {
                        "POSITION" : 19,
                        "NORMAL" : 20,
                        "TEXCOORD_0" : 21
                    },
                    "indices" : 3
                }
            ]
        },
        {
            "name" : "Plane.165",
            "primitives" : [
                {
                    "attributes" : {
                        "POSITION" : 22,
                        "NORMAL" : 23,
                        "TEXCOORD_0" : 24
                    },
                    "indices" : 3,
                    "material" : 1
                }
            ]
        },
        {
            "name" : "Plane.166",
            "primitives" : [
                {
                    "attributes" : {
                        "POSITION" : 25,
                        "NORMAL" : 26,
                        "TEXCOORD_0" : 27
                    },
                    "indices" : 3
                }
            ]
        },
        {
            "name" : "Plane.168",
            "primitives" : [
                {
                    "attributes" : {
                        "POSITION" : 28,
                        "NORMAL" : 29,
                        "TEXCOORD_0" : 30
                    },
                    "indices" : 3
                }
            ]
        }
    ],
    "textures" : [
        {
            "sampler" : 0,
            "source" : 0
        }
    ],
    "images" : [
        {
            "mimeType" : "image/png",
            "name" : "MiniTown_TX",
            "uri" : "MiniTown_TX.png"
        }
    ],
    "accessors" : [
        {
            "bufferView" : 0,
            "componentType" : 5126,
            "count" : 4,
            "max" : [
                -4.267439365386963,
                70.76927185058594,
                67.88935089111328
            ],
            "min" : [
                -6.267439365386963,
                70.76927185058594,
                65.88935089111328
            ],
            "type" : "VEC3"
        },
        {
            "bufferView" : 1,
            "componentType" : 5126,
            "count" : 4,
            "type" : "VEC3"
        },
        {
            "bufferView" : 2,
            "componentType" : 5126,
            "count" : 4,
            "type" : "VEC2"
        },
        {
            "bufferView" : 3,
            "componentType" : 5123,
            "count" : 6,
            "type" : "SCALAR"
        },
        {
            "bufferView" : 4,
            "componentType" : 5126,
            "count" : 4,
            "max" : [
                -4.267439365386963,
                70.76927185058594,
                67.88935089111328
            ],
            "min" : [
                -6.267439365386963,
                70.76927185058594,
                65.88935089111328
            ],
            "type" : "VEC3"
        },
        {
            "bufferView" : 5,
            "componentType" : 5126,
            "count" : 4,
            "type" : "VEC3"
        },
        {
            "bufferView" : 6,
            "componentType" : 5126,
            "count" : 4,
            "type" : "VEC2"
        },
        {
            "bufferView" : 7,
            "componentType" : 5126,
            "count" : 4,
            "max" : [
                -20.70039176940918,
                263.9367370605469,
                252.260009765625
            ],
            "min" : [
                -22.70039176940918,
                263.9367370605469,
                250.260009765625
            ],
            "type" : "VEC3"
        },
        {
            "bufferView" : 8,
            "componentType" : 5126,
            "count" : 4,
            "type" : "VEC3"
        },
        {
            "bufferView" : 9,
            "componentType" : 5126,
            "count" : 4,
            "type" : "VEC2"
        },
        {
            "bufferView" : 10,
            "componentType" : 5126,
            "count" : 4,
            "max" : [
                -20.70039176940918,
                263.9367370605469,
                247.82200622558594
            ],
            "min" : [
                -22.70039176940918,
                263.9367370605469,
                245.82200622558594
            ],
            "type" : "VEC3"
        },
        {
            "bufferView" : 11,
            "componentType" : 5126,
            "count" : 4,
            "type" : "VEC3"
        },
        {
            "bufferView" : 12,
            "componentType" : 5126,
            "count" : 4,
            "type" : "VEC2"
        },
        {
            "bufferView" : 13,
            "componentType" : 5126,
            "count" : 4,
            "max" : [
                -20.70039176940918,
                263.9367370605469,
                250.01712036132812
            ],
            "min" : [
                -22.70039176940918,
                263.9367370605469,
                248.01712036132812
            ],
            "type" : "VEC3"
        },
        {
            "bufferView" : 14,
            "componentType" : 5126,
            "count" : 4,
            "type" : "VEC3"
        },
        {
            "bufferView" : 15,
            "componentType" : 5126,
            "count" : 4,
            "type" : "VEC2"
        },
        {
            "bufferView" : 16,
            "componentType" : 5126,
            "count" : 4,
            "max" : [
                -18.523508071899414,
                263.9367370605469,
                252.260009765625
            ],
            "min" : [
                -20.523508071899414,
                263.9367370605469,
                250.260009765625
            ],
            "type" : "VEC3"
        },
        {
            "bufferView" : 17,
            "componentType" : 5126,
            "count" : 4,
            "type" : "VEC3"
        },
        {
            "bufferView" : 18,
            "componentType" : 5126,
            "count" : 4,
            "type" : "VEC2"
        },
        {
            "bufferView" : 19,
            "componentType" : 5126,
            "count" : 4,
            "max" : [
                -16.334253311157227,
                263.9367370605469,
                252.260009765625
            ],
            "min" : [
                -18.334253311157227,
                263.9367370605469,
                250.260009765625
            ],
            "type" : "VEC3"
        },
        {
            "bufferView" : 20,
            "componentType" : 5126,
            "count" : 4,
            "type" : "VEC3"
        },
        {
            "bufferView" : 21,
            "componentType" : 5126,
            "count" : 4,
            "type" : "VEC2"
        },
        {
            "bufferView" : 22,
            "componentType" : 5126,
            "count" : 4,
            "max" : [
                -7.880846977233887,
                263.9367370605469,
                250.04103088378906
            ],
            "min" : [
                -9.880846977233887,
                263.9367370605469,
                248.04103088378906
            ],
            "type" : "VEC3"
        },
        {
            "bufferView" : 23,
            "componentType" : 5126,
            "count" : 4,
            "type" : "VEC3"
        },
        {
            "bufferView" : 24,
            "componentType" : 5126,
            "count" : 4,
            "type" : "VEC2"
        },
        {
            "bufferView" : 25,
            "componentType" : 5126,
            "count" : 4,
            "max" : [
                -16.334253311157227,
                263.9367370605469,
                247.82200622558594
            ],
            "min" : [
                -18.334253311157227,
                263.9367370605469,
                245.82200622558594
            ],
            "type" : "VEC3"
        },
        {
            "bufferView" : 26,
            "componentType" : 5126,
            "count" : 4,
            "type" : "VEC3"
        },
        {
            "bufferView" : 27,
            "componentType" : 5126,
            "count" : 4,
            "type" : "VEC2"
        },
        {
            "bufferView" : 28,
            "componentType" : 5126,
            "count" : 4,
            "max" : [
                -18.486553192138672,
                263.9367370605469,
                247.82200622558594
            ],
            "min" : [
                -20.486553192138672,
                263.9367370605469,
                245.82200622558594
            ],
            "type" : "VEC3"
        },
        {
            "bufferView" : 29,
            "componentType" : 5126,
            "count" : 4,
            "type" : "VEC3"
        },
        {
            "bufferView" : 30,
            "componentType" : 5126,
            "count" : 4,
            "type" : "VEC2"
        }
    ],
    "bufferViews" : [
        {
            "buffer" : 0,
            "byteLength" : 48,
            "byteOffset" : 0
        },
        {
            "buffer" : 0,
            "byteLength" : 48,
            "byteOffset" : 48
        },
        {
            "buffer" : 0,
            "byteLength" : 32,
            "byteOffset" : 96
        },
        {
            "buffer" : 0,
            "byteLength" : 12,
            "byteOffset" : 128
        },
        {
            "buffer" : 0,
            "byteLength" : 48,
            "byteOffset" : 140
        },
        {
            "buffer" : 0,
            "byteLength" : 48,
            "byteOffset" : 188
        },
        {
            "buffer" : 0,
            "byteLength" : 32,
            "byteOffset" : 236
        },
        {
            "buffer" : 0,
            "byteLength" : 48,
            "byteOffset" : 268
        },
        {
            "buffer" : 0,
            "byteLength" : 48,
            "byteOffset" : 316
        },
        {
            "buffer" : 0,
            "byteLength" : 32,
            "byteOffset" : 364
        },
        {
            "buffer" : 0,
            "byteLength" : 48,
            "byteOffset" : 396
        },
        {
            "buffer" : 0,
            "byteLength" : 48,
            "byteOffset" : 444
        },
        {
            "buffer" : 0,
            "byteLength" : 32,
            "byteOffset" : 492
        },
        {
            "buffer" : 0,
            "byteLength" : 48,
            "byteOffset" : 524
        },
        {
            "buffer" : 0,
            "byteLength" : 48,
            "byteOffset" : 572
        },
        {
            "buffer" : 0,
            "byteLength" : 32,
            "byteOffset" : 620
        },
        {
            "buffer" : 0,
            "byteLength" : 48,
            "byteOffset" : 652
        },
        {
            "buffer" : 0,
            "byteLength" : 48,
            "byteOffset" : 700
        },
        {
            "buffer" : 0,
            "byteLength" : 32,
            "byteOffset" : 748
        },
        {
            "buffer" : 0,
            "byteLength" : 48,
            "byteOffset" : 780
        },
        {
            "buffer" : 0,
            "byteLength" : 48,
            "byteOffset" : 828
        },
        {
            "buffer" : 0,
            "byteLength" : 32,
            "byteOffset" : 876
        },
        {
            "buffer" : 0,
            "byteLength" : 48,
            "byteOffset" : 908
        },
        {
            "buffer" : 0,
            "byteLength" : 48,
            "byteOffset" : 956
        },
        {
            "buffer" : 0,
            "byteLength" : 32,
            "byteOffset" : 1004
        },
        {
            "buffer" : 0,
            "byteLength" : 48,
            "byteOffset" : 1036
        },
        {
            "buffer" : 0,
            "byteLength" : 48,
            "byteOffset" : 1084
        },
        {
            "buffer" : 0,
            "byteLength" : 32,
            "byteOffset" : 1132
        },
        {
            "buffer" : 0,
            "byteLength" : 48,
            "byteOffset" : 1164
        },
        {
            "buffer" : 0,
            "byteLength" : 48,
            "byteOffset" : 1212
        },
        {
            "buffer" : 0,
            "byteLength" : 32,
            "byteOffset" : 1260
        }
    ],
    "samplers" : [
        {
            "magFilter" : 9729,
            "minFilter" : 9987
        }
    ],
    "buffers" : [
        {
            "byteLength" : 1292,
            "uri" : "btn_rent2x1South.bin"
        }
    ]
}
