{
    "asset" : {
        "generator" : "Khronos glTF Blender I/O v1.5.17",
        "version" : "2.0"
    },
    "scene" : 0,
    "scenes" : [
        {
            "name" : "Scene",
            "nodes" : [
                0
            ]
        }
    ],
    "nodes" : [
        {
            "mesh" : 0,
            "name" : "up_selected",
            "scale" : [
                -0.024338973686099052,
                0.7376039624214172,
                0.7376039624214172
            ]
        }
    ],
    "materials" : [
        {
            "alphaMode" : "BLEND",
            "doubleSided" : true,
            "emissiveFactor" : [
                0.14092520401145503,
                0.15616909441142912,
                0.8000001311302185
            ],
            "name" : "blue_selected",
            "pbrMetallicRoughness" : {
                "baseColorFactor" : [
                    0.25538650155067444,
                    0.8000000715255737,
                    0.1581759750843048,
                    0.3863636255264282
                ],
                "metallicFactor" : 0.5363636612892151,
                "roughnessFactor" : 0.11818182468414307
            }
        }
    ],
    "meshes" : [
        {
            "name" : "Cube.006",
            "primitives" : [
                {
                    "attributes" : {
                        "POSITION" : 0,
                        "NORMAL" : 1,
                        "TEXCOORD_0" : 2
                    },
                    "indices" : 3,
                    "material" : 0
                }
            ]
        }
    ],
    "accessors" : [
        {
            "bufferView" : 0,
            "componentType" : 5126,
            "count" : 54,
            "max" : [
                1.0676343441009521,
                0.23115232586860657,
                0.7552970051765442
            ],
            "min" : [
                -0.9323664307594299,
                0.03763608634471893,
                0.47661054134368896
            ],
            "type" : "VEC3"
        },
        {
            "bufferView" : 1,
            "componentType" : 5126,
            "count" : 54,
            "type" : "VEC3"
        },
        {
            "bufferView" : 2,
            "componentType" : 5126,
            "count" : 54,
            "type" : "VEC2"
        },
        {
            "bufferView" : 3,
            "componentType" : 5123,
            "count" : 102,
            "type" : "SCALAR"
        }
    ],
    "bufferViews" : [
        {
            "buffer" : 0,
            "byteLength" : 648,
            "byteOffset" : 0
        },
        {
            "buffer" : 0,
            "byteLength" : 648,
            "byteOffset" : 648
        },
        {
            "buffer" : 0,
            "byteLength" : 432,
            "byteOffset" : 1296
        },
        {
            "buffer" : 0,
            "byteLength" : 204,
            "byteOffset" : 1728
        }
    ],
    "buffers" : [
        {
            "byteLength" : 1932,
            "uri" : "elevator_up_selected.bin"
        }
    ]
}
