{
    "asset" : {
        "generator" : "Khronos glTF Blender I/O v1.5.17",
        "version" : "2.0"
    },
    "scene" : 0,
    "scenes" : [
        {
            "name" : "Scene",
            "nodes" : [
                0,
                1,
                2
            ]
        }
    ],
    "nodes" : [
        {
            "mesh" : 0,
            "name" : "rentBg",
            "rotation" : [
                0.4985944330692291,
                0.5014016032218933,
                -0.5014016628265381,
                0.49859440326690674
            ],
            "scale" : [
                0.1726767122745514,
                0.7048029899597168,
                0.03524014726281166
            ]
        },
        {
            "mesh" : 1,
            "name" : "RentText",
            "rotation" : [
                0.4985944330692291,
                0.5014016032218933,
                -0.5014016628265381,
                0.49859440326690674
            ],
            "scale" : [
                0.09506100416183472,
                0.09506100416183472,
                0.09506099671125412
            ]
        },
        {
            "mesh" : 2,
            "name" : "rentBtn_Collider",
            "rotation" : [
                0.4985944330692291,
                0.5014016032218933,
                -0.5014016628265381,
                0.49859440326690674
            ],
            "scale" : [
                0.1726767122745514,
                0.7048029899597168,
                0.03524014726281166
            ]
        }
    ],
    "materials" : [
        {
            "alphaMode" : "BLEND",
            "doubleSided" : true,
            "name" : "MenuBgTransparent",
            "pbrMetallicRoughness" : {
                "baseColorFactor" : [
                    0.03458452224731445,
                    0.03280330449342728,
                    0.030229933559894562,
                    0.36818182468414307
                ],
                "metallicFactor" : 0,
                "roughnessFactor" : 0.5
            }
        },
        {
            "doubleSided" : true,
            "name" : "mini_town",
            "pbrMetallicRoughness" : {
                "baseColorTexture" : {
                    "index" : 0
                },
                "metallicFactor" : 0,
                "roughnessFactor" : 0.5
            }
        }
    ],
    "meshes" : [
        {
            "name" : "Plane.089",
            "primitives" : [
                {
                    "attributes" : {
                        "POSITION" : 0,
                        "NORMAL" : 1,
                        "TEXCOORD_0" : 2
                    },
                    "indices" : 3,
                    "material" : 0
                }
            ]
        },
        {
            "name" : "Text.005",
            "primitives" : [
                {
                    "attributes" : {
                        "POSITION" : 4,
                        "NORMAL" : 5,
                        "TEXCOORD_0" : 6
                    },
                    "indices" : 7,
                    "material" : 1
                }
            ]
        },
        {
            "name" : "Plane.205",
            "primitives" : [
                {
                    "attributes" : {
                        "POSITION" : 8,
                        "NORMAL" : 9,
                        "TEXCOORD_0" : 10
                    },
                    "indices" : 3,
                    "material" : 0
                }
            ]
        }
    ],
    "textures" : [
        {
            "sampler" : 0,
            "source" : 0
        }
    ],
    "images" : [
        {
            "mimeType" : "image/png",
            "name" : "MiniTown_TX",
            "uri" : "MiniTown_TX.png"
        }
    ],
    "accessors" : [
        {
            "bufferView" : 0,
            "componentType" : 5126,
            "count" : 4,
            "max" : [
                1,
                -1.430511474609375e-06,
                1
            ],
            "min" : [
                -1,
                -1.430511474609375e-06,
                -1
            ],
            "type" : "VEC3"
        },
        {
            "bufferView" : 1,
            "componentType" : 5126,
            "count" : 4,
            "type" : "VEC3"
        },
        {
            "bufferView" : 2,
            "componentType" : 5126,
            "count" : 4,
            "type" : "VEC2"
        },
        {
            "bufferView" : 3,
            "componentType" : 5123,
            "count" : 6,
            "type" : "SCALAR"
        },
        {
            "bufferView" : 4,
            "componentType" : 5126,
            "count" : 180,
            "max" : [
                1.1058197021484375,
                0.05500030517578125,
                0.2513446807861328
            ],
            "min" : [
                -0.966949462890625,
                0.05500030517578125,
                -0.2978706359863281
            ],
            "type" : "VEC3"
        },
        {
            "bufferView" : 5,
            "componentType" : 5126,
            "count" : 180,
            "type" : "VEC3"
        },
        {
            "bufferView" : 6,
            "componentType" : 5126,
            "count" : 180,
            "type" : "VEC2"
        },
        {
            "bufferView" : 7,
            "componentType" : 5123,
            "count" : 228,
            "type" : "SCALAR"
        },
        {
            "bufferView" : 8,
            "componentType" : 5126,
            "count" : 4,
            "max" : [
                1.0001220703125,
                -0.005421161651611328,
                1
            ],
            "min" : [
                -0.9998779296875,
                -0.005421161651611328,
                -1
            ],
            "type" : "VEC3"
        },
        {
            "bufferView" : 9,
            "componentType" : 5126,
            "count" : 4,
            "type" : "VEC3"
        },
        {
            "bufferView" : 10,
            "componentType" : 5126,
            "count" : 4,
            "type" : "VEC2"
        }
    ],
    "bufferViews" : [
        {
            "buffer" : 0,
            "byteLength" : 48,
            "byteOffset" : 0
        },
        {
            "buffer" : 0,
            "byteLength" : 48,
            "byteOffset" : 48
        },
        {
            "buffer" : 0,
            "byteLength" : 32,
            "byteOffset" : 96
        },
        {
            "buffer" : 0,
            "byteLength" : 12,
            "byteOffset" : 128
        },
        {
            "buffer" : 0,
            "byteLength" : 2160,
            "byteOffset" : 140
        },
        {
            "buffer" : 0,
            "byteLength" : 2160,
            "byteOffset" : 2300
        },
        {
            "buffer" : 0,
            "byteLength" : 1440,
            "byteOffset" : 4460
        },
        {
            "buffer" : 0,
            "byteLength" : 456,
            "byteOffset" : 5900
        },
        {
            "buffer" : 0,
            "byteLength" : 48,
            "byteOffset" : 6356
        },
        {
            "buffer" : 0,
            "byteLength" : 48,
            "byteOffset" : 6404
        },
        {
            "buffer" : 0,
            "byteLength" : 32,
            "byteOffset" : 6452
        }
    ],
    "samplers" : [
        {
            "magFilter" : 9729,
            "minFilter" : 9987
        }
    ],
    "buffers" : [
        {
            "byteLength" : 6484,
            "uri" : "menuRent.bin"
        }
    ]
}
