{
    "asset" : {
        "generator" : "Khronos glTF Blender I/O v1.5.17",
        "version" : "2.0"
    },
    "scene" : 0,
    "scenes" : [
        {
            "name" : "Scene",
            "nodes" : [
                0
            ]
        }
    ],
    "nodes" : [
        {
            "mesh" : 0,
            "name" : "menu3_selected",
            "scale" : [
                -0.04054064303636551,
                0.7044156789779663,
                1.3344237804412842
            ]
        }
    ],
    "materials" : [
        {
            "alphaMode" : "BLEND",
            "doubleSided" : true,
            "emissiveFactor" : [
                0.14092520401145503,
                0.15616909441142912,
                0.8000001311302185
            ],
            "name" : "blue_selected",
            "pbrMetallicRoughness" : {
                "baseColorFactor" : [
                    0.25538650155067444,
                    0.8000000715255737,
                    0.1581759750843048,
                    0.3863636255264282
                ],
                "metallicFactor" : 0.5363636612892151,
                "roughnessFactor" : 0.11818182468414307
            }
        }
    ],
    "meshes" : [
        {
            "name" : "Cube.011",
            "primitives" : [
                {
                    "attributes" : {
                        "POSITION" : 0,
                        "NORMAL" : 1,
                        "TEXCOORD_0" : 2
                    },
                    "indices" : 3,
                    "material" : 0
                }
            ]
        }
    ],
    "accessors" : [
        {
            "bufferView" : 0,
            "componentType" : 5126,
            "count" : 48,
            "max" : [
                1.0423341989517212,
                -0.19521352648735046,
                -0.18128865957260132
            ],
            "min" : [
                -0.9576658606529236,
                -0.38552549481391907,
                -0.5858088135719299
            ],
            "type" : "VEC3"
        },
        {
            "bufferView" : 1,
            "componentType" : 5126,
            "count" : 48,
            "type" : "VEC3"
        },
        {
            "bufferView" : 2,
            "componentType" : 5126,
            "count" : 48,
            "type" : "VEC2"
        },
        {
            "bufferView" : 3,
            "componentType" : 5123,
            "count" : 84,
            "type" : "SCALAR"
        }
    ],
    "bufferViews" : [
        {
            "buffer" : 0,
            "byteLength" : 576,
            "byteOffset" : 0
        },
        {
            "buffer" : 0,
            "byteLength" : 576,
            "byteOffset" : 576
        },
        {
            "buffer" : 0,
            "byteLength" : 384,
            "byteOffset" : 1152
        },
        {
            "buffer" : 0,
            "byteLength" : 168,
            "byteOffset" : 1536
        }
    ],
    "buffers" : [
        {
            "byteLength" : 1704,
            "uri" : "menu3_selected.bin"
        }
    ]
}
