{
    "asset" : {
        "generator" : "Khronos glTF Blender I/O v1.5.17",
        "version" : "2.0"
    },
    "scene" : 0,
    "scenes" : [
        {
            "name" : "Scene",
            "nodes" : [
                0,
                1,
                2
            ]
        }
    ],
    "nodes" : [
        {
            "mesh" : 0,
            "name" : "Market_text",
            "rotation" : [
                0.4985944330692291,
                0.5014016032218933,
                -0.5014016628265381,
                0.49859440326690674
            ],
            "scale" : [
                0.09506100416183472,
                0.09506100416183472,
                0.09506099671125412
            ]
        },
        {
            "mesh" : 1,
            "name" : "marketBtn_collider",
            "rotation" : [
                0.4985944330692291,
                0.5014016032218933,
                -0.5014016628265381,
                0.49859440326690674
            ],
            "scale" : [
                0.1726767122745514,
                0.7048029899597168,
                0.03524014726281166
            ]
        },
        {
            "mesh" : 2,
            "name" : "marketBg.001",
            "rotation" : [
                0.4985944330692291,
                0.5014016032218933,
                -0.5014016628265381,
                0.49859440326690674
            ],
            "scale" : [
                0.1726767122745514,
                0.7048029899597168,
                0.03524014726281166
            ]
        }
    ],
    "materials" : [
        {
            "doubleSided" : true,
            "name" : "mini_town",
            "pbrMetallicRoughness" : {
                "baseColorTexture" : {
                    "index" : 0
                },
                "metallicFactor" : 0,
                "roughnessFactor" : 0.5
            }
        },
        {
            "alphaMode" : "BLEND",
            "doubleSided" : true,
            "name" : "MenuBgTransparent",
            "pbrMetallicRoughness" : {
                "baseColorFactor" : [
                    0.03458452224731445,
                    0.03280330449342728,
                    0.030229933559894562,
                    0.36818182468414307
                ],
                "metallicFactor" : 0,
                "roughnessFactor" : 0.5
            }
        }
    ],
    "meshes" : [
        {
            "name" : "Text.006",
            "primitives" : [
                {
                    "attributes" : {
                        "POSITION" : 0,
                        "NORMAL" : 1,
                        "TEXCOORD_0" : 2
                    },
                    "indices" : 3,
                    "material" : 0
                }
            ]
        },
        {
            "name" : "Plane.496",
            "primitives" : [
                {
                    "attributes" : {
                        "POSITION" : 4,
                        "NORMAL" : 5,
                        "TEXCOORD_0" : 6
                    },
                    "indices" : 7,
                    "material" : 1
                }
            ]
        },
        {
            "name" : "Plane.494",
            "primitives" : [
                {
                    "attributes" : {
                        "POSITION" : 8,
                        "NORMAL" : 9,
                        "TEXCOORD_0" : 10
                    },
                    "indices" : 7,
                    "material" : 1
                }
            ]
        }
    ],
    "textures" : [
        {
            "sampler" : 0,
            "source" : 0
        }
    ],
    "images" : [
        {
            "mimeType" : "image/png",
            "name" : "MiniTown_TX",
            "uri" : "MiniTown_TX.png"
        }
    ],
    "accessors" : [
        {
            "bufferView" : 0,
            "componentType" : 5126,
            "count" : 346,
            "max" : [
                1.6019439697265625,
                0.0734405517578125,
                0.25872802734375
            ],
            "min" : [
                -1.5133399963378906,
                0.0734405517578125,
                -0.33767032623291016
            ],
            "type" : "VEC3"
        },
        {
            "bufferView" : 1,
            "componentType" : 5126,
            "count" : 346,
            "type" : "VEC3"
        },
        {
            "bufferView" : 2,
            "componentType" : 5126,
            "count" : 346,
            "type" : "VEC2"
        },
        {
            "bufferView" : 3,
            "componentType" : 5123,
            "count" : 414,
            "type" : "SCALAR"
        },
        {
            "bufferView" : 4,
            "componentType" : 5126,
            "count" : 4,
            "max" : [
                1.0000019073486328,
                -4.76837158203125e-07,
                1.0000038146972656
            ],
            "min" : [
                -0.9999980926513672,
                -4.76837158203125e-07,
                -0.9999961853027344
            ],
            "type" : "VEC3"
        },
        {
            "bufferView" : 5,
            "componentType" : 5126,
            "count" : 4,
            "type" : "VEC3"
        },
        {
            "bufferView" : 6,
            "componentType" : 5126,
            "count" : 4,
            "type" : "VEC2"
        },
        {
            "bufferView" : 7,
            "componentType" : 5123,
            "count" : 6,
            "type" : "SCALAR"
        },
        {
            "bufferView" : 8,
            "componentType" : 5126,
            "count" : 4,
            "max" : [
                1,
                0,
                1
            ],
            "min" : [
                -1,
                0,
                -1
            ],
            "type" : "VEC3"
        },
        {
            "bufferView" : 9,
            "componentType" : 5126,
            "count" : 4,
            "type" : "VEC3"
        },
        {
            "bufferView" : 10,
            "componentType" : 5126,
            "count" : 4,
            "type" : "VEC2"
        }
    ],
    "bufferViews" : [
        {
            "buffer" : 0,
            "byteLength" : 4152,
            "byteOffset" : 0
        },
        {
            "buffer" : 0,
            "byteLength" : 4152,
            "byteOffset" : 4152
        },
        {
            "buffer" : 0,
            "byteLength" : 2768,
            "byteOffset" : 8304
        },
        {
            "buffer" : 0,
            "byteLength" : 828,
            "byteOffset" : 11072
        },
        {
            "buffer" : 0,
            "byteLength" : 48,
            "byteOffset" : 11900
        },
        {
            "buffer" : 0,
            "byteLength" : 48,
            "byteOffset" : 11948
        },
        {
            "buffer" : 0,
            "byteLength" : 32,
            "byteOffset" : 11996
        },
        {
            "buffer" : 0,
            "byteLength" : 12,
            "byteOffset" : 12028
        },
        {
            "buffer" : 0,
            "byteLength" : 48,
            "byteOffset" : 12040
        },
        {
            "buffer" : 0,
            "byteLength" : 48,
            "byteOffset" : 12088
        },
        {
            "buffer" : 0,
            "byteLength" : 32,
            "byteOffset" : 12136
        }
    ],
    "samplers" : [
        {
            "magFilter" : 9729,
            "minFilter" : 9987
        }
    ],
    "buffers" : [
        {
            "byteLength" : 12168,
            "uri" : "menuMarket.bin"
        }
    ]
}
