{
    "asset" : {
        "generator" : "Khronos glTF Blender I/O v1.5.17",
        "version" : "2.0"
    },
    "scene" : 0,
    "scenes" : [
        {
            "name" : "Scene",
            "nodes" : [
                0,
                1,
                2
            ]
        }
    ],
    "nodes" : [
        {
            "mesh" : 0,
            "name" : "Build",
            "rotation" : [
                0.4985944330692291,
                0.5014016032218933,
                -0.5014016628265381,
                0.49859440326690674
            ],
            "scale" : [
                0.09506100416183472,
                0.09506092965602875,
                0.09506092220544815
            ]
        },
        {
            "mesh" : 1,
            "name" : "buildBg",
            "rotation" : [
                0.4985944330692291,
                0.5014016032218933,
                -0.5014016628265381,
                0.49859440326690674
            ],
            "scale" : [
                0.1726767122745514,
                0.7048029899597168,
                0.03524014726281166
            ]
        },
        {
            "mesh" : 2,
            "name" : "buildBtn_collider",
            "rotation" : [
                0.4985944330692291,
                0.5014016032218933,
                -0.5014016628265381,
                0.49859440326690674
            ],
            "scale" : [
                0.1726767122745514,
                0.7048029899597168,
                0.03524014726281166
            ]
        }
    ],
    "materials" : [
        {
            "doubleSided" : true,
            "name" : "mini_town",
            "pbrMetallicRoughness" : {
                "baseColorTexture" : {
                    "index" : 0
                },
                "metallicFactor" : 0,
                "roughnessFactor" : 0.5
            }
        },
        {
            "alphaMode" : "BLEND",
            "doubleSided" : true,
            "name" : "MenuBgTransparent",
            "pbrMetallicRoughness" : {
                "baseColorFactor" : [
                    0.03458452224731445,
                    0.03280330449342728,
                    0.030229933559894562,
                    0.36818182468414307
                ],
                "metallicFactor" : 0,
                "roughnessFactor" : 0.5
            }
        }
    ],
    "meshes" : [
        {
            "name" : "Text.004",
            "primitives" : [
                {
                    "attributes" : {
                        "POSITION" : 0,
                        "NORMAL" : 1,
                        "TEXCOORD_0" : 2
                    },
                    "indices" : 3,
                    "material" : 0
                }
            ]
        },
        {
            "name" : "Plane.088",
            "primitives" : [
                {
                    "attributes" : {
                        "POSITION" : 4,
                        "NORMAL" : 5,
                        "TEXCOORD_0" : 6
                    },
                    "indices" : 7,
                    "material" : 1
                }
            ]
        },
        {
            "name" : "Plane.206",
            "primitives" : [
                {
                    "attributes" : {
                        "POSITION" : 8,
                        "NORMAL" : 9,
                        "TEXCOORD_0" : 10
                    },
                    "indices" : 7,
                    "material" : 1
                }
            ]
        }
    ],
    "textures" : [
        {
            "sampler" : 0,
            "source" : 0
        }
    ],
    "images" : [
        {
            "mimeType" : "image/png",
            "name" : "MiniTown_TX",
            "uri" : "MiniTown_TX.png"
        }
    ],
    "accessors" : [
        {
            "bufferView" : 0,
            "componentType" : 5126,
            "count" : 209,
            "max" : [
                1.0393882989883423,
                0.11554336547851562,
                0.2513655126094818
            ],
            "min" : [
                -1.0270103216171265,
                0.11554336547851562,
                -0.33768096566200256
            ],
            "type" : "VEC3"
        },
        {
            "bufferView" : 1,
            "componentType" : 5126,
            "count" : 209,
            "type" : "VEC3"
        },
        {
            "bufferView" : 2,
            "componentType" : 5126,
            "count" : 209,
            "type" : "VEC2"
        },
        {
            "bufferView" : 3,
            "componentType" : 5123,
            "count" : 252,
            "type" : "SCALAR"
        },
        {
            "bufferView" : 4,
            "componentType" : 5126,
            "count" : 4,
            "max" : [
                0.9984092712402344,
                0.008232593536376953,
                1.0000038146972656
            ],
            "min" : [
                -1.0015907287597656,
                0.008232593536376953,
                -0.9999961853027344
            ],
            "type" : "VEC3"
        },
        {
            "bufferView" : 5,
            "componentType" : 5126,
            "count" : 4,
            "type" : "VEC3"
        },
        {
            "bufferView" : 6,
            "componentType" : 5126,
            "count" : 4,
            "type" : "VEC2"
        },
        {
            "bufferView" : 7,
            "componentType" : 5123,
            "count" : 6,
            "type" : "SCALAR"
        },
        {
            "bufferView" : 8,
            "componentType" : 5126,
            "count" : 4,
            "max" : [
                1.0139808654785156,
                -0.003452777862548828,
                1.0000038146972656
            ],
            "min" : [
                -0.9860191345214844,
                -0.003452777862548828,
                -0.9999961853027344
            ],
            "type" : "VEC3"
        },
        {
            "bufferView" : 9,
            "componentType" : 5126,
            "count" : 4,
            "type" : "VEC3"
        },
        {
            "bufferView" : 10,
            "componentType" : 5126,
            "count" : 4,
            "type" : "VEC2"
        }
    ],
    "bufferViews" : [
        {
            "buffer" : 0,
            "byteLength" : 2508,
            "byteOffset" : 0
        },
        {
            "buffer" : 0,
            "byteLength" : 2508,
            "byteOffset" : 2508
        },
        {
            "buffer" : 0,
            "byteLength" : 1672,
            "byteOffset" : 5016
        },
        {
            "buffer" : 0,
            "byteLength" : 504,
            "byteOffset" : 6688
        },
        {
            "buffer" : 0,
            "byteLength" : 48,
            "byteOffset" : 7192
        },
        {
            "buffer" : 0,
            "byteLength" : 48,
            "byteOffset" : 7240
        },
        {
            "buffer" : 0,
            "byteLength" : 32,
            "byteOffset" : 7288
        },
        {
            "buffer" : 0,
            "byteLength" : 12,
            "byteOffset" : 7320
        },
        {
            "buffer" : 0,
            "byteLength" : 48,
            "byteOffset" : 7332
        },
        {
            "buffer" : 0,
            "byteLength" : 48,
            "byteOffset" : 7380
        },
        {
            "buffer" : 0,
            "byteLength" : 32,
            "byteOffset" : 7428
        }
    ],
    "samplers" : [
        {
            "magFilter" : 9729,
            "minFilter" : 9987
        }
    ],
    "buffers" : [
        {
            "byteLength" : 7460,
            "uri" : "menuBuild.bin"
        }
    ]
}
