{
    "asset" : {
        "generator" : "Khronos glTF Blender I/O v1.5.17",
        "version" : "2.0"
    },
    "scene" : 0,
    "scenes" : [
        {
            "name" : "Scene",
            "nodes" : [
                0,
                1,
                2
            ]
        }
    ],
    "nodes" : [
        {
            "mesh" : 0,
            "name" : "Map_text",
            "rotation" : [
                0.4985944330692291,
                0.5014016032218933,
                -0.5014016628265381,
                0.49859440326690674
            ],
            "scale" : [
                0.08759751915931702,
                0.08759751915931702,
                0.08759751170873642
            ]
        },
        {
            "mesh" : 1,
            "name" : "mapBg",
            "rotation" : [
                0.4985944330692291,
                0.5014016032218933,
                -0.5014016628265381,
                0.49859440326690674
            ],
            "scale" : [
                0.1726767122745514,
                0.7048029899597168,
                0.03524014726281166
            ]
        },
        {
            "mesh" : 2,
            "name" : "mapBtn_collider",
            "rotation" : [
                0.4985944330692291,
                0.5014016032218933,
                -0.5014016628265381,
                0.49859440326690674
            ],
            "scale" : [
                0.1726767122745514,
                0.7048029899597168,
                0.03524014726281166
            ]
        }
    ],
    "materials" : [
        {
            "doubleSided" : true,
            "name" : "mini_town",
            "pbrMetallicRoughness" : {
                "baseColorTexture" : {
                    "index" : 0
                },
                "metallicFactor" : 0,
                "roughnessFactor" : 0.5
            }
        },
        {
            "alphaMode" : "BLEND",
            "doubleSided" : true,
            "name" : "MenuBgTransparent",
            "pbrMetallicRoughness" : {
                "baseColorFactor" : [
                    0.03458452224731445,
                    0.03280330449342728,
                    0.030229933559894562,
                    0.36818182468414307
                ],
                "metallicFactor" : 0,
                "roughnessFactor" : 0.5
            }
        }
    ],
    "meshes" : [
        {
            "name" : "Text.003",
            "primitives" : [
                {
                    "attributes" : {
                        "POSITION" : 0,
                        "NORMAL" : 1,
                        "TEXCOORD_0" : 2
                    },
                    "indices" : 3,
                    "material" : 0
                }
            ]
        },
        {
            "name" : "Plane.076",
            "primitives" : [
                {
                    "attributes" : {
                        "POSITION" : 4,
                        "NORMAL" : 5,
                        "TEXCOORD_0" : 6
                    },
                    "indices" : 7,
                    "material" : 1
                }
            ]
        },
        {
            "name" : "Plane.207",
            "primitives" : [
                {
                    "attributes" : {
                        "POSITION" : 8,
                        "NORMAL" : 9,
                        "TEXCOORD_0" : 10
                    },
                    "indices" : 7,
                    "material" : 1
                }
            ]
        }
    ],
    "textures" : [
        {
            "sampler" : 0,
            "source" : 0
        }
    ],
    "images" : [
        {
            "mimeType" : "image/png",
            "name" : "MiniTown_TX",
            "uri" : "MiniTown_TX.png"
        }
    ],
    "accessors" : [
        {
            "bufferView" : 0,
            "componentType" : 5126,
            "count" : 122,
            "max" : [
                0.9130096435546875,
                0.059146881103515625,
                0.40222930908203125
            ],
            "min" : [
                -0.79693603515625,
                0.059146881103515625,
                -0.2837209701538086
            ],
            "type" : "VEC3"
        },
        {
            "bufferView" : 1,
            "componentType" : 5126,
            "count" : 122,
            "type" : "VEC3"
        },
        {
            "bufferView" : 2,
            "componentType" : 5126,
            "count" : 122,
            "type" : "VEC2"
        },
        {
            "bufferView" : 3,
            "componentType" : 5123,
            "count" : 150,
            "type" : "SCALAR"
        },
        {
            "bufferView" : 4,
            "componentType" : 5126,
            "count" : 4,
            "max" : [
                0.9999961853027344,
                -4.76837158203125e-07,
                1
            ],
            "min" : [
                -1.0000038146972656,
                -4.76837158203125e-07,
                -1
            ],
            "type" : "VEC3"
        },
        {
            "bufferView" : 5,
            "componentType" : 5126,
            "count" : 4,
            "type" : "VEC3"
        },
        {
            "bufferView" : 6,
            "componentType" : 5126,
            "count" : 4,
            "type" : "VEC2"
        },
        {
            "bufferView" : 7,
            "componentType" : 5123,
            "count" : 6,
            "type" : "SCALAR"
        },
        {
            "bufferView" : 8,
            "componentType" : 5126,
            "count" : 4,
            "max" : [
                1.0002479553222656,
                -0.011070728302001953,
                1
            ],
            "min" : [
                -0.9997520446777344,
                -0.011070728302001953,
                -1
            ],
            "type" : "VEC3"
        },
        {
            "bufferView" : 9,
            "componentType" : 5126,
            "count" : 4,
            "type" : "VEC3"
        },
        {
            "bufferView" : 10,
            "componentType" : 5126,
            "count" : 4,
            "type" : "VEC2"
        }
    ],
    "bufferViews" : [
        {
            "buffer" : 0,
            "byteLength" : 1464,
            "byteOffset" : 0
        },
        {
            "buffer" : 0,
            "byteLength" : 1464,
            "byteOffset" : 1464
        },
        {
            "buffer" : 0,
            "byteLength" : 976,
            "byteOffset" : 2928
        },
        {
            "buffer" : 0,
            "byteLength" : 300,
            "byteOffset" : 3904
        },
        {
            "buffer" : 0,
            "byteLength" : 48,
            "byteOffset" : 4204
        },
        {
            "buffer" : 0,
            "byteLength" : 48,
            "byteOffset" : 4252
        },
        {
            "buffer" : 0,
            "byteLength" : 32,
            "byteOffset" : 4300
        },
        {
            "buffer" : 0,
            "byteLength" : 12,
            "byteOffset" : 4332
        },
        {
            "buffer" : 0,
            "byteLength" : 48,
            "byteOffset" : 4344
        },
        {
            "buffer" : 0,
            "byteLength" : 48,
            "byteOffset" : 4392
        },
        {
            "buffer" : 0,
            "byteLength" : 32,
            "byteOffset" : 4440
        }
    ],
    "samplers" : [
        {
            "magFilter" : 9729,
            "minFilter" : 9987
        }
    ],
    "buffers" : [
        {
            "byteLength" : 4472,
            "uri" : "menuMap.bin"
        }
    ]
}
