{
    "asset" : {
        "generator" : "Khronos glTF Blender I/O v1.5.17",
        "version" : "2.0"
    },
    "scene" : 0,
    "scenes" : [
        {
            "name" : "Scene",
            "nodes" : [
                0
            ]
        }
    ],
    "nodes" : [
        {
            "mesh" : 0,
            "name" : "menu1",
            "scale" : [
                -0.044058699160814285,
                0.8868454694747925,
                1.4502228498458862
            ]
        }
    ],
    "materials" : [
        {
            "alphaMode" : "BLEND",
            "doubleSided" : true,
            "emissiveFactor" : [
                0.07046259150598333,
                0.07808453557021222,
                0.4000000059604645
            ],
            "name" : "green emission",
            "pbrMetallicRoughness" : {
                "baseColorFactor" : [
                    0.25538650155067444,
                    0.8000000715255737,
                    0.1581759750843048,
                    0.3863636255264282
                ],
                "metallicFactor" : 0.5363636612892151,
                "roughnessFactor" : 0.11818182468414307
            }
        }
    ],
    "meshes" : [
        {
            "name" : "Cube.007",
            "primitives" : [
                {
                    "attributes" : {
                        "POSITION" : 0,
                        "NORMAL" : 1,
                        "TEXCOORD_0" : 2
                    },
                    "indices" : 3,
                    "material" : 0
                }
            ]
        }
    ],
    "accessors" : [
        {
            "bufferView" : 0,
            "componentType" : 5126,
            "count" : 48,
            "max" : [
                1.0389537811279297,
                0.31832456588745117,
                -0.15088298916816711
            ],
            "min" : [
                -0.9610462188720703,
                0.12801262736320496,
                -0.5554031729698181
            ],
            "type" : "VEC3"
        },
        {
            "bufferView" : 1,
            "componentType" : 5126,
            "count" : 48,
            "type" : "VEC3"
        },
        {
            "bufferView" : 2,
            "componentType" : 5126,
            "count" : 48,
            "type" : "VEC2"
        },
        {
            "bufferView" : 3,
            "componentType" : 5123,
            "count" : 84,
            "type" : "SCALAR"
        }
    ],
    "bufferViews" : [
        {
            "buffer" : 0,
            "byteLength" : 576,
            "byteOffset" : 0
        },
        {
            "buffer" : 0,
            "byteLength" : 576,
            "byteOffset" : 576
        },
        {
            "buffer" : 0,
            "byteLength" : 384,
            "byteOffset" : 1152
        },
        {
            "buffer" : 0,
            "byteLength" : 168,
            "byteOffset" : 1536
        }
    ],
    "buffers" : [
        {
            "byteLength" : 1704,
            "uri" : "menu1.bin"
        }
    ]
}
