{
    "asset" : {
        "generator" : "Khronos glTF Blender I/O v1.5.17",
        "version" : "2.0"
    },
    "scene" : 0,
    "scenes" : [
        {
            "name" : "Scene",
            "nodes" : [
                0
            ]
        }
    ],
    "nodes" : [
        {
            "mesh" : 0,
            "name" : "uiBorder",
            "rotation" : [
                0,
                0,
                -1,
                -4.371138828673793e-08
            ],
            "scale" : [
                0.08282531797885895,
                1,
                1
            ]
        }
    ],
    "materials" : [
        {
            "alphaMode" : "BLEND",
            "doubleSided" : true,
            "emissiveFactor" : [
                0.07046259150598333,
                0.07808453557021222,
                0.4000000059604645
            ],
            "name" : "green emission",
            "pbrMetallicRoughness" : {
                "baseColorFactor" : [
                    0.25538650155067444,
                    0.8000000715255737,
                    0.1581759750843048,
                    0.3863636255264282
                ],
                "metallicFactor" : 0.5363636612892151,
                "roughnessFactor" : 0.11818182468414307
            }
        }
    ],
    "meshes" : [
        {
            "name" : "Cube.005",
            "primitives" : [
                {
                    "attributes" : {
                        "POSITION" : 0,
                        "NORMAL" : 1,
                        "TEXCOORD_0" : 2
                    },
                    "indices" : 3,
                    "material" : 0
                }
            ]
        }
    ],
    "accessors" : [
        {
            "bufferView" : 0,
            "componentType" : 5126,
            "count" : 636,
            "max" : [
                0.3657408356666565,
                0.4643099308013916,
                1
            ],
            "min" : [
                -0.6342707276344299,
                -0.4643099308013916,
                -1
            ],
            "type" : "VEC3"
        },
        {
            "bufferView" : 1,
            "componentType" : 5126,
            "count" : 636,
            "type" : "VEC3"
        },
        {
            "bufferView" : 2,
            "componentType" : 5126,
            "count" : 636,
            "type" : "VEC2"
        },
        {
            "bufferView" : 3,
            "componentType" : 5123,
            "count" : 1392,
            "type" : "SCALAR"
        }
    ],
    "bufferViews" : [
        {
            "buffer" : 0,
            "byteLength" : 7632,
            "byteOffset" : 0
        },
        {
            "buffer" : 0,
            "byteLength" : 7632,
            "byteOffset" : 7632
        },
        {
            "buffer" : 0,
            "byteLength" : 5088,
            "byteOffset" : 15264
        },
        {
            "buffer" : 0,
            "byteLength" : 2784,
            "byteOffset" : 20352
        }
    ],
    "buffers" : [
        {
            "byteLength" : 23136,
            "uri" : "ui_border.bin"
        }
    ]
}
