{
    "asset" : {
        "generator" : "Khronos glTF Blender I/O v1.5.17",
        "version" : "2.0"
    },
    "scene" : 0,
    "scenes" : [
        {
            "name" : "Scene",
            "nodes" : [
                0,
                1
            ]
        }
    ],
    "nodes" : [
        {
            "mesh" : 0,
            "name" : "r4c2"
        },
        {
            "mesh" : 1,
            "name" : "r4c2_collider"
        }
    ],
    "materials" : [
        {
            "doubleSided" : true,
            "name" : "Material.001",
            "pbrMetallicRoughness" : {
                "baseColorTexture" : {
                    "index" : 0
                },
                "metallicFactor" : 0,
                "roughnessFactor" : 0.5
            }
        }
    ],
    "meshes" : [
        {
            "name" : "Cube.086",
            "primitives" : [
                {
                    "attributes" : {
                        "POSITION" : 0,
                        "NORMAL" : 1,
                        "TEXCOORD_0" : 2
                    },
                    "indices" : 3,
                    "material" : 0
                }
            ]
        },
        {
            "name" : "Cube.087",
            "primitives" : [
                {
                    "attributes" : {
                        "POSITION" : 4,
                        "NORMAL" : 5,
                        "TEXCOORD_0" : 6
                    },
                    "indices" : 7
                }
            ]
        }
    ],
    "textures" : [
        {
            "sampler" : 0,
            "source" : 0
        }
    ],
    "images" : [
        {
            "mimeType" : "image/png",
            "name" : "MiniTown_TX",
            "uri" : "MiniTown_TX.png"
        }
    ],
    "accessors" : [
        {
            "bufferView" : 0,
            "componentType" : 5126,
            "count" : 631,
            "max" : [
                0.5103087425231934,
                1.3887300491333008,
                0.5103095173835754
            ],
            "min" : [
                -1.4896914958953857,
                -0.611270010471344,
                -1.4896907806396484
            ],
            "type" : "VEC3"
        },
        {
            "bufferView" : 1,
            "componentType" : 5126,
            "count" : 631,
            "type" : "VEC3"
        },
        {
            "bufferView" : 2,
            "componentType" : 5126,
            "count" : 631,
            "type" : "VEC2"
        },
        {
            "bufferView" : 3,
            "componentType" : 5123,
            "count" : 708,
            "type" : "SCALAR"
        },
        {
            "bufferView" : 4,
            "componentType" : 5126,
            "count" : 626,
            "max" : [
                0.5103087425231934,
                1.3887300491333008,
                0.5103095173835754
            ],
            "min" : [
                -1.4896914958953857,
                -0.611270010471344,
                -1.4896907806396484
            ],
            "type" : "VEC3"
        },
        {
            "bufferView" : 5,
            "componentType" : 5126,
            "count" : 626,
            "type" : "VEC3"
        },
        {
            "bufferView" : 6,
            "componentType" : 5126,
            "count" : 626,
            "type" : "VEC2"
        },
        {
            "bufferView" : 7,
            "componentType" : 5123,
            "count" : 708,
            "type" : "SCALAR"
        }
    ],
    "bufferViews" : [
        {
            "buffer" : 0,
            "byteLength" : 7572,
            "byteOffset" : 0
        },
        {
            "buffer" : 0,
            "byteLength" : 7572,
            "byteOffset" : 7572
        },
        {
            "buffer" : 0,
            "byteLength" : 5048,
            "byteOffset" : 15144
        },
        {
            "buffer" : 0,
            "byteLength" : 1416,
            "byteOffset" : 20192
        },
        {
            "buffer" : 0,
            "byteLength" : 7512,
            "byteOffset" : 21608
        },
        {
            "buffer" : 0,
            "byteLength" : 7512,
            "byteOffset" : 29120
        },
        {
            "buffer" : 0,
            "byteLength" : 5008,
            "byteOffset" : 36632
        },
        {
            "buffer" : 0,
            "byteLength" : 1416,
            "byteOffset" : 41640
        }
    ],
    "samplers" : [
        {
            "magFilter" : 9729,
            "minFilter" : 9987
        }
    ],
    "buffers" : [
        {
            "byteLength" : 43056,
            "uri" : "c2_r4c2.bin"
        }
    ]
}
